<?xml version="1.0" encoding="UTF-8"?>
<svg width="78px" height="32px" viewBox="0 0 78 32" version="1.1" xmlns="http://www.w3.org/2000/svg" xmlns:xlink="http://www.w3.org/1999/xlink">
    <title>画板</title>
    <defs>
        <linearGradient x1="48.0782595%" y1="32.939841%" x2="52.1312108%" y2="68.9229664%" id="linearGradient-1">
            <stop stop-color="#83CCFF" offset="0%"></stop>
            <stop stop-color="#48B1F9" offset="100%"></stop>
        </linearGradient>
        <polygon id="path-2" points="0 0 13.521484 0 13.521484 14.6274413 0 14.6274413"></polygon>
        <path d="M2.43087314,6.37239211 C0.931401062,7.2338487 0,8.87677639 0,10.6600012 L0,10.6600012 L0,24.3188131 L9.1634749,18.244754 C11.8752861,16.4473382 13.51786,13.3324195 13.5187893,9.98528493 L13.5187893,9.98528493 L13.521577,0 L2.43087314,6.37239211 Z" id="path-4"></path>
        <linearGradient x1="52.4637086%" y1="75.1105682%" x2="48.392514%" y2="33.6174334%" id="linearGradient-6">
            <stop stop-color="#0072E8" offset="0%"></stop>
            <stop stop-color="#1CA5FF" offset="100%"></stop>
        </linearGradient>
    </defs>
    <g id="画板" stroke="none" stroke-width="1" fill="none" fill-rule="evenodd">
        <g id="尚付logo备份" transform="translate(-0.000000, 0.000000)">
            <g id="编组-2">
                <path d="M13.523993,0 L27.043092,7.67989679 L17.005657,13.4905844 C15.8648688,14.1388539 14.4275171,13.5988228 13.8052408,12.4109738 C13.6162968,12.0507166 13.5174883,11.6465964 13.5177783,11.2360257 L13.523993,0 Z" id="Fill-1" fill="#0E6AF8"></path>
                <path d="M18.3833233,12.6573807 C15.3840694,14.3806164 13.521577,17.6655042 13.521577,21.2325989 L13.521577,21.2325989 L13.521577,32 L24.5679874,25.8124131 C26.092239,24.9583745 27.0428442,23.3019009 27.0428442,21.4996472 L27.0428442,21.4996472 L27.0428442,7.68118688 L18.3833233,12.6573807 Z" id="Fill-3" fill="url(#linearGradient-1)"></path>
                <g id="编组" transform="translate(0.000000, 17.372559)">
                    <mask id="mask-3" fill="white">
                        <use xlink:href="#path-2"></use>
                    </mask>
                    <g id="Clip-6"></g>
                    <path d="M13.5183866,2.44819959 L13.521484,14.6276025 L-9.2923285e-05,6.94802825 L9.90398056,0.383412956 C10.9995461,-0.342906865 12.453176,-0.00683881328 13.1507201,1.13392194 C13.3904622,1.52675388 13.5183866,1.98247764 13.5183866,2.44819959" id="Fill-5" fill="#003AEB" mask="url(#mask-3)"></path>
                </g>
                <g id="编组" transform="translate(0.000000, 0.001935)">
                    <mask id="mask-5" fill="white">
                        <use xlink:href="#path-4"></use>
                    </mask>
                    <g id="Clip-8"></g>
                    <path d="M2.43087314,6.37239211 C0.931401062,7.2338487 0,8.87677639 0,10.6600012 L0,10.6600012 L0,24.3188131 L9.1634749,18.244754 C11.8752861,16.4473382 13.51786,13.3324195 13.5187893,9.98528493 L13.5187893,9.98528493 L13.521577,0 L2.43087314,6.37239211 Z" id="Fill-7" fill="url(#linearGradient-6)" mask="url(#mask-5)"></path>
                </g>
            </g>
            <g id="编组" transform="translate(36.469454, 5.159622)" fill="#3192FF">
                <path d="M26.5019574,6.2471999 L25.6169086,6.2471999 C26.1314572,4.89918644 26.5019574,3.356547 26.5019574,1.70777762 L26.5019574,0.701665827 L24.0506177,0.701665827 L24.0506177,1.70777762 C24.0506177,5.96440444 20.7827938,9.58294543 20.7497696,9.61886633 L21.6338748,10.4946832 L22.5217542,11.3776843 C22.5884316,11.3055159 23.2699883,10.5554222 24.0506177,9.33182568 L24.0506177,21.3316926 L24.0937064,21.3316926 L26.5019574,21.3316926 L26.939764,21.3316926 C26.601659,19.8909379 26.5189412,18.2581697 26.5019574,17.298102 L26.5019574,6.2471999 Z" id="Fill-9"></path>
                <path d="M41.2986576,5.69803463 L39.1413906,5.69803463 L39.1413906,0 L36.690051,0 L36.690051,5.69803463 L27.8993216,5.69803463 L27.8993216,8.24319378 L36.690051,8.24319378 L36.690051,15.8868351 C36.690051,19.0194642 35.8326796,20.7061138 35.3879537,21.3703239 L38.1689064,21.3703239 C38.6812534,20.1421557 39.1413906,18.3529682 39.1413906,15.8868351 L39.1413906,8.24319378 L41.2986576,8.24319378 L41.2986576,5.69803463 Z" id="Fill-11"></path>
                <path d="M29.503386,11.3304646 C30.8035962,12.8476329 31.8701208,14.7282554 32.3922178,16.3904134 L34.9397994,16.3904134 C34.4139283,14.1825842 33.0718874,11.6655087 31.3341851,9.63859018 L29.503386,11.3304646 Z" id="Fill-13"></path>
                <path d="M10.4177219,6.83780483 L10.0799314,9.79660949e-05 L7.62859176,9.79660949e-05 L7.2908013,6.83780483 L0,6.83780483 L0,21.331562 L0.0424596944,21.331562 L0.0424596944,21.3589925 L2.8888318,21.3589925 C2.5560736,19.9420762 2.47021066,18.3501272 2.45133969,17.3943047 L2.45133969,9.38296398 L15.2115787,9.38296398 L15.2115787,15.7602302 C15.2115787,19.1155689 14.2277718,20.8120152 13.8211023,21.3704219 L16.6360228,21.3704219 C17.1694423,20.1399677 17.6629183,18.3135532 17.6629183,15.7602302 L17.6629183,6.83780483 L10.4177219,6.83780483 Z" id="Fill-15"></path>
                <path d="M13.0170415,11.377619 L13.0170415,18.5039993 L4.64587686,18.5039993 L4.64587686,11.377619 L13.0170415,11.377619 Z M10.5660163,13.9227781 L7.09721655,13.9227781 L7.09721655,15.9588401 L10.5660163,15.9588401 L10.5660163,13.9227781 Z" id="Fill-17"></path>
                <path d="M15.9140822,5.81859824 L15.9140822,0.954581628 L13.4998554,0.954581628 C13.4998554,0.954581628 13.5847748,3.61664698 13.0680246,5.81859824 L15.9140822,5.81859824 Z" id="Fill-19"></path>
                <path d="M4.38602353,0.954581628 L1.97211127,0.954581628 L1.97211127,5.81859824 L4.81816886,5.81859824 C4.30141865,3.61664698 4.38602353,0.954581628 4.38602353,0.954581628" id="Fill-20"></path>
            </g>
        </g>
    </g>
</svg>